<?xml version="1.0" encoding="utf-8"?>
<!-- Generator: Adobe Illustrator 19.0.0, SVG Export Plug-In . SVG Version: 6.00 Build 0)  -->
<svg version="1.1" id="Laag_1" xmlns="http://www.w3.org/2000/svg" xmlns:xlink="http://www.w3.org/1999/xlink" x="0px" y="0px"
	 viewBox="0 0 339 143.4" style="enable-background:new 0 0 339 143.4;" xml:space="preserve">
<style type="text/css">
	.st0{fill:#028844;}
	.st1{fill:#ED1D25;}
	.st2{fill:#82C341;}
</style>
<g>
	<g>
		<path class="st0" d="M93.6,34.1L91,43.2h14.8l-11.5,40h17.7c1.5,0,3-0.1,4.2-0.3c3.3-0.7,6.2-2.2,8.4-6.4c0.7-1.4,1.3-3.1,1.9-5
			l10.7-37.5H93.6"/>
		<path class="st1" d="M110.6,26.8h17.7c1.5,0,3-0.1,4.2-0.3c3.3-0.7,6.2-2.2,8.4-6.3c0.7-1.4,1.3-3.1,1.9-5l4.2-14.5h-17.7
			c-1.5,0-3,0.1-4.2,0.3c-3.3,0.7-6.2,2.2-8.4,6.3c-0.7,1.4-1.3,3.1-1.9,5L110.6,26.8"/>
		<path class="st0" d="M51.8,53.6c-1.3,4.4-2.6,7.6-5.3,9.9C43,66.3,38.2,67,31.2,67c-1.9,0-9.5-0.2-13.5-3.3L0,77.1
			c8.9,6.8,23.6,7.7,34.5,7.7c23.5,0,36.3-6.4,41.8-18.1c1.2-2.5,2-5.2,2.7-7.4L95.8,0.6H78.1c-1.5,0-3,0.1-4.2,0.3
			c-3.3,0.7-6.2,2.2-8.4,6.3c-0.7,1.4-1.3,3.1-1.9,5L51.8,53.6"/>
		<path class="st0" d="M311.4,34.1c-3.6,7.6-17.8,30.8-22.2,30.8c-0.7,0-1.1-0.2-1.4-0.6c-0.2-0.2-0.3-0.5-0.3-0.8l-7.4-29.5h-40.3
			l3.2-11c1-3.4,1.9-5.7,4.3-8c4.3-4.1,11.5-3.2,14.5-2.5L265,0.6c-20.2-1.7-33.7,0.1-41.9,7c-5.7,4.9-7.8,10.4-9.1,14.8l-3.4,11.7
			h-22.3l3.2-11c1-3.4,1.9-5.7,4.3-8c4.3-4.1,11.5-3.2,14.5-2.5l3.4-11.9c-20.2-1.7-33.7,0.1-41.9,7c-5.7,4.9-7.8,10.4-9,14.8
			l-3.4,11.7h-14.8l-2.6,9.1H157l-10.7,37.5c-0.9,3-2,6.2-3.7,8.3c-3.5,4.4-9.9,5.3-17.8,3.2l-3.6,12.5c3.5,0.5,7.3,0.7,11.3,0.7
			c19.3,0,32.3-3.7,39.3-16.9c2-3.8,3.4-7.7,4.7-12.2l9.5-33.1h22.3l-10.8,37.5c-0.9,3-2,6.2-3.7,8.3c-3.4,4.4-9.9,5.3-17.8,3.2
			l-3.6,12.5c3.5,0.5,7.3,0.7,11.3,0.7c19.3,0,32.3-3.7,39.3-16.9c2-3.8,3.4-7.7,4.7-12.2l9.5-33.1h14c1.8,0,2.9,0.5,3.6,2.7
			c2.1,6.9,7,25.4,8.5,32.7c2.6,12.5-13.1,15.1-19.3,15.1c-2.9,0-5.5-0.4-8.6-1.4l-3.6,12.5c3.4,0.4,7.5,0.7,11.3,0.7
			c43.9,0,72.3-38,96.2-71.4H311.4"/>
	</g>
	<g>
		<path class="st2" d="M29.9,142.2c-0.1,0.2-0.4,0.3-0.8,0.5c-1.4,0.5-3.4,0.8-5.9,0.8c-2.1,0-3.7-0.5-4.9-1.5
			c-1.1-1-1.7-2.4-1.7-4.3c0-2,0.4-4,1.1-6c0.7-2,1.8-3.6,3.2-4.7c0.8-0.7,1.8-1.1,2.8-1.4c1.1-0.3,2.4-0.4,3.9-0.4
			c1.7,0,3.1,0.1,4.2,0.5c0.4,0.1,0.6,0.3,0.6,0.6c0,0.4-0.2,0.9-0.5,1.5c-0.1,0.2-0.3,0.3-0.6,0.3c-0.3,0-0.6,0-0.9-0.1
			c-1-0.2-2.2-0.3-3.4-0.3c-1.9,0-3.4,0.5-4.5,1.6c-0.9,0.8-1.5,2-2,3.5s-0.7,2.9-0.7,4.3c0,2.7,1.4,4.1,4.2,4.1
			c1.2,0,2.2-0.1,3-0.3c0.4-0.1,0.7-0.3,0.7-0.7l0.9-3.8h-3.6c-0.3,0-0.5-0.1-0.5-0.4c0-0.2,0.1-0.8,0.4-1.7
			c0.1-0.3,0.3-0.5,0.7-0.5h5.7c0.4,0,0.6,0.2,0.6,0.5c0,0.1,0,0.3-0.1,0.5l-1.6,6.8C30.2,141.7,30,142,29.9,142.2z"/>
		<path class="st2" d="M36.6,143.1h-1.8c-0.4,0-0.6-0.2-0.6-0.5c0-0.1,0-0.4,0.1-0.8l3.3-13.8c0.2-0.9,0.6-1.6,1.1-2
			c0.5-0.4,1.3-0.6,2.3-0.6h1.9c2.3,0,4,0.2,5,0.7c1.3,0.6,2,1.7,2,3.3c0,1.5-0.3,2.8-1.1,3.9c-0.7,1.1-1.8,1.8-3.3,2.3l2.5,6.5
			c0.1,0.3,0.1,0.5,0.1,0.7c0,0.3-0.2,0.4-0.5,0.5c-0.2,0.1-0.9,0.1-2,0.1c-0.4,0-0.6-0.2-0.8-0.6l-2.5-6.8c-0.4,0-0.9,0-1.7,0h-1.9
			l-1.5,6.5C37.3,142.9,37,143.1,36.6,143.1z M41.3,133.5c1.5,0,2.7-0.1,3.4-0.4c1.3-0.5,2-1.6,2-3.3c0-0.9-0.3-1.4-1-1.7
			c-0.5-0.2-1.5-0.3-2.8-0.3h-1.1c-0.6,0-1,0.3-1.1,0.9l-1.2,4.8H41.3z"/>
		<path class="st2" d="M67.4,136.1c-0.6,2.2-1.5,3.9-2.6,5.1c-0.8,0.8-1.7,1.4-2.7,1.7c-1,0.3-2.3,0.5-3.7,0.5c-2.2,0-4-0.4-5.2-1.2
			c-1.2-0.8-1.8-2.2-1.8-4.3c0-1.8,0.3-3.8,0.9-5.8c0.6-2.1,1.5-3.7,2.7-4.9c1.5-1.4,3.6-2.2,6.2-2.2c0.9,0,1.7,0,2.3,0.1
			c0.7,0.1,1.3,0.2,1.9,0.4c0.6,0.2,1.1,0.5,1.5,0.9c0.4,0.4,0.7,0.9,0.9,1.5c0.2,0.6,0.4,1.4,0.4,2.3
			C68.3,131.9,68,133.9,67.4,136.1z M64.1,128.1c-0.6-0.5-1.6-0.7-3.1-0.7c-1.6,0-2.8,0.5-3.7,1.4c-0.8,0.9-1.5,2.2-1.9,4
			c-0.5,1.8-0.7,3.3-0.7,4.7c0,1.3,0.3,2.2,0.9,2.7c0.6,0.5,1.6,0.7,3,0.7c0.9,0,1.7-0.1,2.3-0.3c0.6-0.2,1.1-0.7,1.6-1.3
			c0.7-0.9,1.3-2.3,1.8-4.1c0.5-1.8,0.7-3.3,0.7-4.5C65,129.4,64.7,128.6,64.1,128.1z"/>
		<path class="st2" d="M76.6,141.6c-0.3,0.6-0.6,0.9-0.9,1.2c-0.4,0.2-0.8,0.3-1.4,0.3h-0.8c-1.1,0-1.6-0.5-1.6-1.4
			c0-5.5-0.1-10.5-0.1-15.1c0-0.4,0-0.6,0.1-0.8c0.1-0.3,0.3-0.5,0.6-0.5c0.4-0.1,1.1-0.1,2.1-0.1c0.4,0,0.6,0.2,0.6,0.7
			c-0.1,7.8-0.2,12.5-0.3,14.1c0.9-2,3.2-6.3,6.7-12.9c0.3-0.5,0.5-0.9,0.8-1.1c0.2-0.2,0.6-0.3,1.1-0.3h0.8c0.6,0,0.9,0.1,1.1,0.3
			c0.2,0.2,0.3,0.5,0.3,1c0.4,5.7,0.6,10,0.6,12.9c0.5-1.4,2.6-6,6.3-14.1c0.2-0.5,0.5-0.8,0.9-0.8c1,0,1.7,0,2,0.1
			c0.2,0,0.4,0.2,0.4,0.4c0,0.3-0.1,0.6-0.3,1l-7.1,14.9c-0.2,0.5-0.5,0.9-0.9,1.2c-0.3,0.3-0.8,0.4-1.5,0.4h-0.7
			c-0.7,0-1.1-0.1-1.4-0.4c-0.2-0.2-0.4-0.6-0.4-1.2c-0.3-5.5-0.5-9.7-0.5-12.5C82.8,129.9,80.6,134.1,76.6,141.6z"/>
		<path class="st2" d="M98,143.1h-1.9c-0.4,0-0.6-0.2-0.6-0.5c0,0,0-0.2,0.1-0.5l3.8-16.2c0.1-0.5,0.4-0.7,0.8-0.7h1.8
			c0.4,0,0.6,0.2,0.6,0.5c0,0.1,0,0.3-0.1,0.6l-3.8,16.1C98.7,142.9,98.4,143.1,98,143.1z"/>
		<path class="st2" d="M106.2,143.1h-1.7c-0.4,0-0.6-0.2-0.6-0.5c0-0.1,0-0.3,0.1-0.5l3.5-14.9c0.2-0.7,0.4-1.2,0.8-1.6
			c0.4-0.3,1-0.5,1.7-0.5h0.9c0.3,0,0.6,0,0.8,0.1s0.4,0.2,0.5,0.3c0.1,0.1,0.2,0.3,0.3,0.4c0.1,0.1,0.1,0.3,0.2,0.6
			c2,6.2,3.2,10.5,3.8,12.8c0.4-1.8,1.4-6.3,3.2-13.4c0.1-0.5,0.4-0.8,0.9-0.8h1.6c0.4,0,0.6,0.2,0.6,0.5c0,0.1,0,0.3-0.1,0.6
			l-3.6,15.2c-0.3,1.1-1,1.7-2.1,1.7h-0.7c-0.6,0-1.1-0.1-1.3-0.3c-0.3-0.2-0.5-0.7-0.7-1.3c-2.4-7.5-3.7-11.8-3.9-13
			c-0.4,2.1-1.5,6.7-3.2,13.8C106.9,142.9,106.6,143.1,106.2,143.1z"/>
		<path class="st2" d="M137.6,142.2c-0.1,0.2-0.4,0.3-0.8,0.5c-1.4,0.5-3.4,0.8-5.9,0.8c-2.1,0-3.7-0.5-4.9-1.5
			c-1.1-1-1.7-2.4-1.7-4.3c0-2,0.4-4,1.1-6c0.7-2,1.8-3.6,3.2-4.7c0.8-0.7,1.8-1.1,2.8-1.4c1.1-0.3,2.4-0.4,3.9-0.4
			c1.7,0,3.1,0.1,4.2,0.5c0.4,0.1,0.6,0.3,0.6,0.6c0,0.4-0.2,0.9-0.5,1.5c-0.1,0.2-0.3,0.3-0.6,0.3c-0.3,0-0.6,0-0.9-0.1
			c-1-0.2-2.2-0.3-3.4-0.3c-1.9,0-3.4,0.5-4.5,1.6c-0.9,0.8-1.5,2-2,3.5s-0.7,2.9-0.7,4.3c0,2.7,1.4,4.1,4.2,4.1
			c1.2,0,2.2-0.1,3-0.3c0.4-0.1,0.7-0.3,0.7-0.7l0.9-3.8h-3.6c-0.3,0-0.5-0.1-0.5-0.4c0-0.2,0.1-0.8,0.4-1.7
			c0.1-0.3,0.3-0.5,0.7-0.5h5.7c0.4,0,0.6,0.2,0.6,0.5c0,0.1,0,0.3-0.1,0.5l-1.6,6.8C137.9,141.7,137.8,142,137.6,142.2z"/>
		<path class="st2" d="M153.2,135c-2.3-0.8-3.4-2.2-3.4-4.1c0-3.9,2.6-5.9,7.7-5.9c1.8,0,3.2,0.2,4.5,0.5c0.3,0.1,0.5,0.3,0.5,0.7
			c0,0.2-0.1,0.6-0.4,1.3c-0.1,0.3-0.3,0.5-0.7,0.5c-0.3,0-0.7,0-1-0.1c-1.2-0.3-2.5-0.4-3.7-0.4c-2.4,0-3.6,0.9-3.6,2.7
			c0,0.6,0.2,1,0.5,1.4c0.3,0.4,0.9,0.7,1.7,1l2,0.7c1.3,0.5,2.3,1,2.9,1.6c0.6,0.6,0.9,1.4,0.9,2.4c0,2.1-0.7,3.7-2,4.6
			c-1.3,1-3.3,1.5-5.9,1.5c-2.2,0-4-0.3-5.4-0.8c-0.4-0.1-0.5-0.3-0.5-0.6c0-0.3,0.1-0.8,0.4-1.4c0.1-0.4,0.4-0.6,0.8-0.6
			c0.1,0,0.5,0.1,1,0.2c1.3,0.4,2.7,0.6,4.1,0.6c1.3,0,2.3-0.2,3-0.6s1.1-1.1,1.1-2.2c0-0.5-0.2-1-0.5-1.3c-0.3-0.4-1-0.7-1.9-1.1
			L153.2,135z"/>
		<path class="st2" d="M180.2,136.1c-0.6,2.2-1.5,3.9-2.6,5.1c-0.8,0.8-1.7,1.4-2.7,1.7c-1,0.3-2.3,0.5-3.7,0.5
			c-2.2,0-4-0.4-5.2-1.2c-1.2-0.8-1.8-2.2-1.8-4.3c0-1.8,0.3-3.8,0.9-5.8c0.6-2.1,1.5-3.7,2.7-4.9c1.5-1.4,3.6-2.2,6.2-2.2
			c0.9,0,1.7,0,2.3,0.1c0.7,0.1,1.3,0.2,1.9,0.4c0.6,0.2,1.1,0.5,1.5,0.9c0.4,0.4,0.7,0.9,0.9,1.5c0.2,0.6,0.4,1.4,0.4,2.3
			C181.1,131.9,180.8,133.9,180.2,136.1z M176.9,128.1c-0.6-0.5-1.6-0.7-3.1-0.7c-1.6,0-2.8,0.5-3.7,1.4c-0.8,0.9-1.5,2.2-1.9,4
			c-0.5,1.8-0.7,3.3-0.7,4.7c0,1.3,0.3,2.2,0.9,2.7c0.6,0.5,1.6,0.7,3,0.7c0.9,0,1.7-0.1,2.3-0.3c0.6-0.2,1.1-0.7,1.6-1.3
			c0.7-0.9,1.3-2.3,1.8-4.1c0.5-1.8,0.7-3.3,0.7-4.5C177.8,129.4,177.5,128.6,176.9,128.1z"/>
		<path class="st2" d="M185.7,143.1c-0.8,0-1.5-0.1-1.9-0.4s-0.6-0.7-0.6-1.3c0-0.4,0-0.7,0.1-1.1l3.3-14.2c0.1-0.5,0.4-0.7,0.8-0.7
			h1.8c0.4,0,0.6,0.2,0.6,0.5c0,0.2,0,0.4-0.1,0.6l-3,12.7c-0.1,0.2-0.1,0.5-0.1,0.8c0,0.5,0.3,0.7,0.9,0.7h6.7
			c0.4,0,0.6,0.1,0.6,0.4c0,0.2-0.1,0.8-0.3,1.7c-0.1,0.3-0.3,0.5-0.8,0.5H185.7z"/>
		<path class="st2" d="M211.4,135.9c-0.4,1.5-0.7,2.5-0.9,3.3c-0.2,0.7-0.6,1.3-1,1.8c-0.7,0.8-1.6,1.4-2.7,1.8
			c-1.1,0.4-2.5,0.6-4.2,0.6c-0.7,0-1.4-0.1-2.1-0.2c-0.6-0.1-1.3-0.3-1.9-0.6c-0.6-0.3-1.1-0.7-1.4-1.2c-0.4-0.5-0.5-1.2-0.5-1.9
			c0-0.9,0.2-2,0.5-3.4l2.3-10.1c0.1-0.4,0.4-0.6,0.8-0.6h1.9c0.4,0,0.5,0.2,0.5,0.5c0,0.2,0,0.3-0.1,0.5l-2.4,10.4
			c-0.2,0.8-0.3,1.4-0.3,2c0,1.5,1.1,2.3,3.2,2.3c1.8,0,3-0.4,3.7-1.1c0.5-0.5,1-1.5,1.3-3l2.6-10.9c0.1-0.4,0.4-0.6,0.7-0.6h1.8
			c0.3,0,0.5,0.1,0.5,0.4c0,0.1,0,0.3-0.1,0.4L211.4,135.9z"/>
		<path class="st2" d="M220.8,143.1h-1.9c-0.4,0-0.6-0.2-0.6-0.5c0-0.1,0-0.2,0.1-0.4l3.4-14.3h-4.9c-0.4,0-0.6-0.1-0.6-0.4
			c0-0.2,0.1-0.7,0.3-1.6c0.1-0.4,0.3-0.6,0.8-0.6h13c0.4,0,0.6,0.1,0.6,0.4c0,0.3-0.1,0.9-0.3,1.7c-0.1,0.3-0.3,0.5-0.8,0.5H225
			l-3.5,14.6C221.4,142.9,221.2,143.1,220.8,143.1z"/>
		<path class="st2" d="M232.4,143.1h-1.9c-0.4,0-0.6-0.2-0.6-0.5c0,0,0-0.2,0.1-0.5l3.8-16.2c0.1-0.5,0.4-0.7,0.8-0.7h1.8
			c0.4,0,0.6,0.2,0.6,0.5c0,0.1,0,0.3-0.1,0.6l-3.8,16.1C233.1,142.9,232.8,143.1,232.4,143.1z"/>
		<path class="st2" d="M254.7,136.1c-0.6,2.2-1.5,3.9-2.6,5.1c-0.8,0.8-1.7,1.4-2.7,1.7c-1,0.3-2.3,0.5-3.7,0.5
			c-2.2,0-4-0.4-5.2-1.2c-1.2-0.8-1.8-2.2-1.8-4.3c0-1.8,0.3-3.8,0.9-5.8c0.6-2.1,1.5-3.7,2.7-4.9c1.5-1.4,3.6-2.2,6.2-2.2
			c0.9,0,1.7,0,2.3,0.1c0.7,0.1,1.3,0.2,1.9,0.4c0.6,0.2,1.1,0.5,1.5,0.9c0.4,0.4,0.7,0.9,0.9,1.5c0.2,0.6,0.4,1.4,0.4,2.3
			C255.7,131.9,255.3,133.9,254.7,136.1z M251.5,128.1c-0.6-0.5-1.6-0.7-3.1-0.7c-1.6,0-2.8,0.5-3.7,1.4c-0.8,0.9-1.5,2.2-1.9,4
			c-0.5,1.8-0.7,3.3-0.7,4.7c0,1.3,0.3,2.2,0.9,2.7c0.6,0.5,1.6,0.7,3,0.7c0.9,0,1.7-0.1,2.3-0.3c0.6-0.2,1.1-0.7,1.6-1.3
			c0.7-0.9,1.3-2.3,1.8-4.1c0.5-1.8,0.7-3.3,0.7-4.5C252.3,129.4,252,128.6,251.5,128.1z"/>
		<path class="st2" d="M259.7,143.1H258c-0.4,0-0.6-0.2-0.6-0.5c0-0.1,0-0.3,0.1-0.5l3.5-14.9c0.2-0.7,0.4-1.2,0.8-1.6
			c0.4-0.3,1-0.5,1.7-0.5h0.9c0.3,0,0.6,0,0.8,0.1s0.4,0.2,0.5,0.3c0.1,0.1,0.2,0.3,0.3,0.4c0.1,0.1,0.1,0.3,0.2,0.6
			c2,6.2,3.2,10.5,3.8,12.8c0.4-1.8,1.4-6.3,3.2-13.4c0.1-0.5,0.4-0.8,0.9-0.8h1.6c0.4,0,0.6,0.2,0.6,0.5c0,0.1,0,0.3-0.1,0.6
			l-3.6,15.2c-0.3,1.1-1,1.7-2.1,1.7h-0.7c-0.6,0-1.1-0.1-1.3-0.3c-0.3-0.2-0.5-0.7-0.7-1.3c-2.4-7.5-3.7-11.8-3.9-13
			c-0.4,2.1-1.5,6.7-3.2,13.8C260.4,142.9,260.1,143.1,259.7,143.1z"/>
		<path class="st2" d="M282.2,135c-2.3-0.8-3.4-2.2-3.4-4.1c0-3.9,2.6-5.9,7.7-5.9c1.8,0,3.2,0.2,4.5,0.5c0.3,0.1,0.5,0.3,0.5,0.7
			c0,0.2-0.1,0.6-0.4,1.3c-0.1,0.3-0.3,0.5-0.7,0.5c-0.3,0-0.7,0-1-0.1c-1.2-0.3-2.5-0.4-3.7-0.4c-2.4,0-3.6,0.9-3.6,2.7
			c0,0.6,0.2,1,0.5,1.4c0.3,0.4,0.9,0.7,1.7,1l2,0.7c1.3,0.5,2.3,1,2.9,1.6s0.9,1.4,0.9,2.4c0,2.1-0.7,3.7-2,4.6
			c-1.3,1-3.3,1.5-5.9,1.5c-2.2,0-4-0.3-5.4-0.8c-0.4-0.1-0.5-0.3-0.5-0.6c0-0.3,0.1-0.8,0.4-1.4c0.1-0.4,0.4-0.6,0.8-0.6
			c0.1,0,0.5,0.1,1,0.2c1.3,0.4,2.7,0.6,4.1,0.6c1.3,0,2.3-0.2,3-0.6c0.7-0.4,1.1-1.1,1.1-2.2c0-0.5-0.2-1-0.5-1.3
			c-0.3-0.4-1-0.7-1.9-1.1L282.2,135z"/>
	</g>
</g>
</svg>
